# xmcd
#
# Track frame offsets:
#	150
#	15868
#	28351
#	40495
#	43343
#	57466
#	72242
#	77478
#	96922
#	109443
#	111594
#	127351
#	142544
#	150022
#	162562
#	165373
#	178536
#
# Disc length: 2550 seconds
#
# Revision: 1
# Processed by: cddbd v1.5.2PL0 Copyright (c) Steve Scherf et al.
# Submitted via: audiograbber 1.82.02
#
DISCID=e609f411
DTITLE=Alison Krauss and Union Station  - Live At Winterhawk (BootLeg) - Disc 1
DYEAR=0000
DGENRE=Bluegrass
TTITLE0=Too Late To Cry
TTITLE1=Lonesome Heartache Blues
TTITLE2=Rebecca
TTITLE3=Steffey Intro
TTITLE4=Steel Rails
TTITLE5=Throw A Penny In The Wishing Well
TTITLE6=Tim Stafford Intro
TTITLE7=Still Be Walking In 100 Years
TTITLE8=Endless Highway
TTITLE9=Alison Brown Intro
TTITLE10=Leaving Cottendale
TTITLE11=I'm Gonna Live On Down The Mine
TTITLE12=Band Talk
TTITLE13=I Will
TTITLE14=Band Intros
TTITLE15=Dark Skies
TTITLE16=Big Mon
EXTD=A Dream`Master Special
EXTT0=
EXTT1=
EXTT2=
EXTT3=
EXTT4=
EXTT5=
EXTT6=
EXTT7=
EXTT8=
EXTT9=
EXTT10=
EXTT11=
EXTT12=
EXTT13=
EXTT14=
EXTT15=
EXTT16=
PLAYORDER=
